<svg width="20" height="20" viewBox="0 0 20 20" fill="none" xmlns="http://www.w3.org/2000/svg">
<circle cx="10.0005" cy="10.0005" r="10" fill="#F39C12"/>
<g clip-path="url(#clip0_294_65807)">
<path d="M9.99076 15.0504C9.29545 15.0504 8.73047 14.4848 8.73047 13.7895C8.73047 13.0944 9.29566 12.5294 9.99076 12.5294C10.6859 12.5294 11.2511 13.0944 11.2511 13.7895C11.2511 14.4848 10.6861 15.0504 9.99076 15.0504Z" fill="white" stroke="white" stroke-width="0.5"/>
<path d="M9.99079 11.5135C9.43417 11.5135 8.98291 11.0623 8.98291 10.5057V5.95842C8.98291 5.40179 9.43417 4.95054 9.99079 4.95054C10.5474 4.95054 10.9987 5.40179 10.9987 5.95842V10.5057C10.9987 11.0623 10.5474 11.5135 9.99079 11.5135Z" fill="white" stroke="white" stroke-width="0.5"/>
</g>
<defs>
<clipPath id="clip0_294_65807">
<rect width="12" height="12" fill="white" transform="matrix(1 0 0 -1 4.00049 16.0005)"/>
</clipPath>
</defs>
</svg>
