<svg width="252" height="261" viewBox="0 0 252 261" fill="none" xmlns="http://www.w3.org/2000/svg">
<path d="M0.000183105 10.0003C0.000183105 4.47745 4.47734 0.000305176 10.0002 0.000305176H242C247.523 0.000305176 252 4.47746 252 10.0003V254H0.000183105V10.0003Z" fill="white"/>
<path d="M19.0002 254C19.0002 257.866 15.8662 261 12.0002 261C8.13419 261 5.00018 257.866 5.00018 254C5.00018 250.134 8.13419 247 12.0002 247C15.8662 247 19.0002 250.134 19.0002 254Z" fill="#F8F3FF"/>
<path d="M38.0002 254C38.0002 257.866 34.8662 261 31.0002 261C27.1342 261 24.0002 257.866 24.0002 254C24.0002 250.134 27.1342 247 31.0002 247C34.8662 247 38.0002 250.134 38.0002 254Z" fill="#F8F3FF"/>
<path d="M57.0002 254C57.0002 257.866 53.8662 261 50.0002 261C46.1342 261 43.0002 257.866 43.0002 254C43.0002 250.134 46.1342 247 50.0002 247C53.8662 247 57.0002 250.134 57.0002 254Z" fill="#F8F3FF"/>
<path d="M76.0002 254C76.0002 257.866 72.8662 261 69.0002 261C65.1342 261 62.0002 257.866 62.0002 254C62.0002 250.134 65.1342 247 69.0002 247C72.8662 247 76.0002 250.134 76.0002 254Z" fill="#F8F3FF"/>
<path d="M95.0002 254C95.0002 257.866 91.8662 261 88.0002 261C84.1342 261 81.0002 257.866 81.0002 254C81.0002 250.134 84.1342 247 88.0002 247C91.8662 247 95.0002 250.134 95.0002 254Z" fill="#F8F3FF"/>
<path d="M114 254C114 257.866 110.866 261 107 261C103.134 261 100 257.866 100 254C100 250.134 103.134 247 107 247C110.866 247 114 250.134 114 254Z" fill="#F8F3FF"/>
<path d="M133 254C133 257.866 129.866 261 126 261C122.134 261 119 257.866 119 254C119 250.134 122.134 247 126 247C129.866 247 133 250.134 133 254Z" fill="#F8F3FF"/>
<path d="M152 254C152 257.866 148.866 261 145 261C141.134 261 138 257.866 138 254C138 250.134 141.134 247 145 247C148.866 247 152 250.134 152 254Z" fill="#F8F3FF"/>
<path d="M171 254C171 257.866 167.866 261 164 261C160.134 261 157 257.866 157 254C157 250.134 160.134 247 164 247C167.866 247 171 250.134 171 254Z" fill="#F8F3FF"/>
<path d="M190 254C190 257.866 186.866 261 183 261C179.134 261 176 257.866 176 254C176 250.134 179.134 247 183 247C186.866 247 190 250.134 190 254Z" fill="#F8F3FF"/>
<path d="M209 254C209 257.866 205.866 261 202 261C198.134 261 195 257.866 195 254C195 250.134 198.134 247 202 247C205.866 247 209 250.134 209 254Z" fill="#F8F3FF"/>
<path d="M228 254C228 257.866 224.866 261 221 261C217.134 261 214 257.866 214 254C214 250.134 217.134 247 221 247C224.866 247 228 250.134 228 254Z" fill="#F8F3FF"/>
<path d="M247 254C247 257.866 243.866 261 240 261C236.134 261 233 257.866 233 254C233 250.134 236.134 247 240 247C243.866 247 247 250.134 247 254Z" fill="#F8F3FF"/>
</svg>
