<svg width="245" height="181" viewBox="0 0 245 181" fill="none" xmlns="http://www.w3.org/2000/svg">
<path d="M-1.52588e-05 10C-1.52588e-05 4.47715 4.47714 1.78814e-07 9.99998 1.78814e-07H242C247.523 1.78814e-07 252 4.47715 252 10V174H-1.52588e-05V10Z" fill="#EBE0FB"/>
<path d="M19 174C19 177.866 15.866 181 12 181C8.13399 181 4.99998 177.866 4.99998 174C4.99998 170.134 8.13399 167 12 167C15.866 167 19 170.134 19 174Z" fill="#F8F3FF"/>
<path d="M38 174C38 177.866 34.866 181 31 181C27.134 181 24 177.866 24 174C24 170.134 27.134 167 31 167C34.866 167 38 170.134 38 174Z" fill="#F8F3FF"/>
<path d="M57 174C57 177.866 53.866 181 50 181C46.134 181 43 177.866 43 174C43 170.134 46.134 167 50 167C53.866 167 57 170.134 57 174Z" fill="#F8F3FF"/>
<path d="M76 174C76 177.866 72.866 181 69 181C65.134 181 62 177.866 62 174C62 170.134 65.134 167 69 167C72.866 167 76 170.134 76 174Z" fill="#F8F3FF"/>
<path d="M95 174C95 177.866 91.866 181 88 181C84.134 181 81 177.866 81 174C81 170.134 84.134 167 88 167C91.866 167 95 170.134 95 174Z" fill="#F8F3FF"/>
<path d="M114 174C114 177.866 110.866 181 107 181C103.134 181 100 177.866 100 174C100 170.134 103.134 167 107 167C110.866 167 114 170.134 114 174Z" fill="#F8F3FF"/>
<path d="M133 174C133 177.866 129.866 181 126 181C122.134 181 119 177.866 119 174C119 170.134 122.134 167 126 167C129.866 167 133 170.134 133 174Z" fill="#F8F3FF"/>
<path d="M152 174C152 177.866 148.866 181 145 181C141.134 181 138 177.866 138 174C138 170.134 141.134 167 145 167C148.866 167 152 170.134 152 174Z" fill="#F8F3FF"/>
<path d="M171 174C171 177.866 167.866 181 164 181C160.134 181 157 177.866 157 174C157 170.134 160.134 167 164 167C167.866 167 171 170.134 171 174Z" fill="#F8F3FF"/>
<path d="M190 174C190 177.866 186.866 181 183 181C179.134 181 176 177.866 176 174C176 170.134 179.134 167 183 167C186.866 167 190 170.134 190 174Z" fill="#F8F3FF"/>
<path d="M209 174C209 177.866 205.866 181 202 181C198.134 181 195 177.866 195 174C195 170.134 198.134 167 202 167C205.866 167 209 170.134 209 174Z" fill="#F8F3FF"/>
<path d="M228 174C228 177.866 224.866 181 221 181C217.134 181 214 177.866 214 174C214 170.134 217.134 167 221 167C224.866 167 228 170.134 228 174Z" fill="#F8F3FF"/>
<path d="M247 174C247 177.866 243.866 181 240 181C236.134 181 233 177.866 233 174C233 170.134 236.134 167 240 167C243.866 167 247 170.134 247 174Z" fill="#F8F3FF"/>
</svg>
